<?xml version="1.0" standalone="no"?>
<!DOCTYPE svg PUBLIC "-//W3C//DTD SVG 20010904//EN"
 "http://www.w3.org/TR/2001/REC-SVG-20010904/DTD/svg10.dtd">
<svg version="1.0" xmlns="http://www.w3.org/2000/svg"
 width="180.000000pt" height="180.000000pt" viewBox="0 0 180.000000 180.000000"
 preserveAspectRatio="xMidYMid meet">

<g transform="translate(0.000000,180.000000) scale(0.100000,-0.100000)"
fill="#2ca250" stroke="none">
<path d="M1370 1345 c0 -24 2 -25 70 -25 39 0 70 -2 70 -5 0 -3 -18 -30 -40
-59 -47 -62 -51 -86 -15 -86 36 0 82 -26 90 -50 6 -20 -9 -59 -29 -72 -20 -13
-81 -8 -104 8 -22 15 -24 15 -37 -2 -19 -26 -15 -36 26 -57 24 -13 49 -17 87
-14 62 4 97 31 113 88 15 49 -11 107 -58 129 -18 8 -33 19 -33 24 0 6 18 31
40 57 22 26 40 57 40 68 0 20 -5 21 -110 21 l-110 0 0 -25z"/>
<path d="M222 1198 c14 -24 109 -204 213 -400 103 -197 191 -358 195 -358 4 0
74 127 155 281 117 222 151 278 159 267 6 -8 74 -135 151 -281 77 -147 143
-267 146 -267 8 0 139 247 139 262 0 6 -62 130 -137 275 l-138 263 -168 -2
-169 -3 -64 -120 c-35 -66 -68 -120 -74 -120 -6 0 -39 54 -74 120 l-64 120
-147 3 -147 3 24 -43z"/>
</g>
</svg>
